<?xml version="1.0" standalone="no"?>
<!DOCTYPE svg PUBLIC "-//W3C//DTD SVG 20010904//EN"
 "http://www.w3.org/TR/2001/REC-SVG-20010904/DTD/svg10.dtd">
<svg version="1.0" xmlns="http://www.w3.org/2000/svg"
 width="700.000000pt" height="700.000000pt" viewBox="0 0 700.000000 700.000000"
 preserveAspectRatio="xMidYMid meet">
<metadata>
Created by potrace 1.14, written by Peter Selinger 2001-2017
</metadata>
<g transform="translate(0.000000,700.000000) scale(0.100000,-0.100000)"
fill="#000000" stroke="none">
<path d="M1970 6645 c-131 -27 -148 -40 -507 -398 -184 -183 -348 -353 -365
-380 -62 -96 -87 -251 -58 -357 30 -112 61 -151 396 -486 177 -177 343 -336
369 -354 121 -83 292 -100 432 -42 24 9 43 20 43 25 0 4 7 7 17 7 20 0 673
649 713 709 97 145 102 336 14 487 -29 49 -602 632 -696 708 -89 72 -239 105
-358 81z"/>
<path d="M4148 5295 c-2 -1 -34 -5 -73 -9 -164 -14 -359 -93 -495 -201 -76
-61 -982 -978 -1018 -1031 -173 -258 -220 -560 -130 -844 11 -36 25 -71 31
-77 5 -7 7 -13 4 -13 -10 0 52 -109 101 -180 62 -88 923 -953 1032 -1035 100
-77 196 -125 313 -159 108 -31 151 -38 262 -38 77 -1 119 3 195 17 135 25 293
99 407 190 98 79 967 952 1015 1020 91 129 151 279 175 435 2 19 5 85 5 145 0
126 -25 242 -76 365 -66 156 -101 196 -608 705 -263 264 -505 499 -536 522
-100 72 -255 144 -342 159 -14 3 -31 7 -38 9 -22 8 -218 25 -224 20z"/>
<path d="M1953 2396 c-120 -29 -147 -51 -503 -406 -350 -350 -380 -388 -410
-500 -30 -112 -6 -258 60 -359 16 -25 179 -195 362 -377 343 -340 366 -359
480 -394 55 -17 146 -18 213 -3 124 27 146 45 501 398 327 326 383 391 406
470 6 22 13 47 16 55 12 40 9 165 -5 213 -35 117 -53 140 -392 480 -179 180
-346 341 -370 357 -100 67 -243 93 -358 66z"/>
</g>
</svg>
