<?xml version="1.0" encoding="UTF-8"?><svg id="logo" xmlns="http://www.w3.org/2000/svg" viewBox="0 0 300 52"><defs><style>.cls-1{fill:#fff;}.cls-2{opacity:.4;}</style></defs><g id="text"><g><path class="cls-1" d="m171.36,0h6.27c.43,0,.79.35.79.79v16.05h.1c1.78-2.46,4.81-3.35,8.05-3.35,7.22,0,11.61,6.49,11.61,13.55,0,7.69-4.97,13.13-12.5,13.13-3.56,0-6.59-2.14-7.79-3.98h-.1v3.35h-7.22V.79c0-.43.35-.79.79-.79Zm12.71,33.26c3.92,0,6.28-2.62,6.28-6.43s-2.35-6.43-6.28-6.43-6.28,2.62-6.28,6.43,2.35,6.43,6.28,6.43Z"/><path class="cls-1" d="m213.94,13.49c7.85,0,14.12,5.23,14.12,13.34s-6.28,13.34-14.12,13.34-14.12-5.23-14.12-13.34,6.28-13.34,14.12-13.34Zm0,19.77c3.92,0,6.28-2.62,6.28-6.43s-2.35-6.43-6.28-6.43-6.28,2.62-6.28,6.43,2.35,6.43,6.28,6.43Z"/><path class="cls-1" d="m243.67,13.49c7.85,0,14.12,5.23,14.12,13.34s-6.28,13.34-14.12,13.34-14.12-5.23-14.12-13.34,6.28-13.34,14.12-13.34Zm0,19.77c3.92,0,6.28-2.62,6.28-6.43s-2.35-6.43-6.28-6.43-6.28,2.62-6.28,6.43,2.35,6.43,6.28,6.43Z"/><path class="cls-1" d="m274.48,21.6c-1.15-1.41-2.67-2.14-4.55-2.14-1.31,0-2.88.58-2.88,2.09,0,3.77,13.23.58,13.23,10.25,0,6.49-6.28,8.37-11.72,8.37-3.56,0-7.48-.89-9.99-3.45l4.76-5.28c1.46,1.78,3.19,2.77,5.54,2.77,1.78,0,3.56-.47,3.56-1.83,0-4.08-13.23-.63-13.23-10.3,0-5.96,5.33-8.58,10.67-8.58,3.35,0,7.06.84,9.41,3.35l-4.81,4.76Z"/><path class="cls-1" d="m299.21,20.4h-6.12v8.47c0,2.72.31,4.71,3.71,4.71.84,0,2.51-.1,3.19-.73v6.54c-1.73.63-3.66.78-5.49.78-5.23,0-9.26-2.14-9.26-7.69v-12.08h-4.23c-.43,0-.79-.35-.79-.79v-4.7c0-.43.35-.79.79-.79h4.23v-6.74c0-.43.35-.79.79-.79h6.27c.43,0,.79.35.79.79v6.74h6.12c.43,0,.79.35.79.79v4.7c0,.43-.35.79-.79.79Z"/></g><g><path class="cls-1" d="m62.71,14.12h4.84c.66,0,1.19.53,1.19,1.19v2.16h.1c1.2-1.83,4.24-3.98,7.79-3.98,7.53,0,12.5,5.44,12.5,13.13,0,7.06-4.39,13.55-11.61,13.55-3.24,0-6.28-.89-8.05-3.35h-.1v15.18h-7.85V15.31c0-.66.53-1.19,1.19-1.19Zm12.3,19.14c3.92,0,6.28-2.62,6.28-6.43s-2.35-6.43-6.28-6.43-6.28,2.62-6.28,6.43,2.35,6.43,6.28,6.43Z"/><path class="cls-1" d="m92.74,14.12h6.27c.43,0,.79.35.79.79v24.63h-7.85V14.91c0-.43.35-.79.79-.79Z"/><path class="cls-1" d="m110.73,25.94l-7.58-10.57c-.37-.52,0-1.25.64-1.25h7.3c.27,0,.51.13.66.36l4.27,6.55,4.11-6.54c.14-.23.4-.37.67-.37h6.79c.64,0,1.01.72.65,1.24l-7.4,10.58,9.78,13.6h-9.26l-5.54-8.47-5.96,8.47h-9.15l10.04-13.6Z"/><path class="cls-1" d="m153.89,35.15c-2.51,3.19-6.64,5.02-10.72,5.02-7.85,0-14.12-5.23-14.12-13.34s6.28-13.34,14.12-13.34c7.32,0,11.93,5.23,11.93,13.34v2.46h-18.2c.63,2.98,2.88,4.92,5.91,4.92,2.56,0,4.29-1.31,5.6-3.09l5.49,4.03Zm-6.64-11.19c.05-2.62-1.99-4.81-4.81-4.81-3.45,0-5.33,2.35-5.54,4.81h10.36Z"/><path class="cls-1" d="m158.95,0h6.27c.43,0,.79.35.79.79v38.75h-7.85V.79c0-.43.35-.79.79-.79Z"/><rect class="cls-1" x="91.95" y="4.51" width="7.85" height="7.85" rx=".79" ry=".79"/></g></g><g id="squares"><rect class="cls-1" x="1.56" y="18.22" width="15.02" height="15.02" rx="1.57" ry="1.57"/><rect class="cls-1" x="18.76" y="1.02" width="15.02" height="15.02" rx="1.57" ry="1.57"/><rect class="cls-1" x="35.97" y="18.22" width="15.02" height="15.02" rx="1.57" ry="1.57"/><rect class="cls-1" x="18.76" y="18.22" width="15.02" height="15.02" rx="1.57" ry="1.57"/><rect class="cls-1" x="18.76" y="35.43" width="15.02" height="15.02" rx="1.57" ry="1.57"/></g><g id="fadedSquares" class="cls-2"><rect class="cls-1" y="19.78" width="15.02" height="15.02" rx="1.57" ry="1.57"/><rect class="cls-1" x="17.21" y="2.57" width="15.02" height="15.02" rx="1.57" ry="1.57"/><rect class="cls-1" x="34.41" y="19.78" width="15.02" height="15.02" rx="1.57" ry="1.57"/><rect class="cls-1" x="17.21" y="19.78" width="15.02" height="15.02" rx="1.57" ry="1.57"/><rect class="cls-1" x="17.21" y="36.99" width="15.02" height="15.02" rx="1.57" ry="1.57"/></g></svg>