<svg xmlns="http://www.w3.org/2000/svg" viewBox="0 0 215.99 40.64"><defs><style>.cls-1{fill:#f26722;}.cls-2{fill:#fff;}</style></defs><g id="Layer_2" data-name="Layer 2"><g id="Layer_1-2" data-name="Layer 1"><rect class="cls-1" x="10.33" y="10.33" width="19.98" height="19.98" rx="6.22" transform="translate(49.06 20.32) rotate(135)"/><rect class="cls-1" x="1.09" y="28.44" width="11.12" height="11.12" rx="2.94" transform="translate(35.38 53.34) rotate(135)"/><rect class="cls-1" x="1.09" y="1.09" width="11.12" height="11.12" rx="2.94" transform="translate(6.64 16.04) rotate(-135)"/><path class="cls-2" d="M38.55,11.26h5.64v2.61h.08a7.7,7.7,0,0,1,6.09-3.1c5.88,0,9.75,4.24,9.75,10.25,0,5.51-3.43,10.57-9.06,10.57-2.53,0-4.9-.69-6.29-2.61h-.08V40.41H38.55ZM49.09,26.2c3.06,0,4.9-2,4.9-5s-1.84-5-4.9-5-4.9,2-4.9,5S46,26.2,49.09,26.2Z"/><path class="cls-2" d="M64.35,1.46A3.55,3.55,0,1,1,60.8,5,3.56,3.56,0,0,1,64.35,1.46Zm-3.06,9.8h6.13V31.1H61.29Z"/><path class="cls-2" d="M75.66,20.49l-6.61-9.23h7.23l3.51,5.39,3.39-5.39H90l-6.45,9.23L91.18,31.1H84l-4.32-6.61L75,31.1H67.82Z"/><path class="cls-2" d="M107.35,27.67A10.78,10.78,0,0,1,99,31.59c-6.12,0-11-4.08-11-10.41s4.9-10.41,11-10.41c5.72,0,9.31,4.08,9.31,10.41V23.1H94.08a4.58,4.58,0,0,0,4.61,3.84,5.21,5.21,0,0,0,4.37-2.41Zm-5.18-8.74a3.67,3.67,0,0,0-3.76-3.75,4.08,4.08,0,0,0-4.33,3.75Z"/><path class="cls-2" d="M109.66.23h6.13V31.1h-6.13Z"/><path class="cls-2" d="M118.11.23h6.13V13.38h.08c1.39-1.92,3.75-2.61,6.29-2.61,5.63,0,9.06,5.06,9.06,10.57,0,6-3.88,10.25-9.76,10.25a7.69,7.69,0,0,1-6.08-3.1h-.08V31.1h-5.64Zm10.54,26c3.06,0,4.9-2,4.9-5s-1.84-5-4.9-5-4.9,2-4.9,5S125.58,26.2,128.65,26.2Z"/><path class="cls-2" d="M151,10.77c6.12,0,11,4.08,11,10.41s-4.9,10.41-11,10.41-11-4.08-11-10.41S144.82,10.77,151,10.77Zm0,15.43c3.06,0,4.9-2,4.9-5s-1.84-5-4.9-5-4.9,2-4.9,5S147.88,26.2,151,26.2Z"/><path class="cls-2" d="M173.28,10.77c6.13,0,11,4.08,11,10.41s-4.9,10.41-11,10.41-11-4.08-11-10.41S167.16,10.77,173.28,10.77Zm0,15.43c3.06,0,4.9-2,4.9-5s-1.84-5-4.9-5-4.9,2-4.9,5S170.22,26.2,173.28,26.2Z"/><path class="cls-2" d="M196.31,17.1a4.36,4.36,0,0,0-3.55-1.68c-1,0-2.25.45-2.25,1.64,0,2.94,10.33.44,10.33,8,0,5.06-4.9,6.53-9.14,6.53-2.78,0-5.84-.69-7.8-2.69l3.71-4.13a5.34,5.34,0,0,0,4.33,2.17c1.39,0,2.78-.37,2.78-1.43,0-3.19-10.33-.49-10.33-8,0-4.65,4.16-6.69,8.33-6.69,2.61,0,5.51.65,7.35,2.61Z"/><path class="cls-2" d="M216,16.16H210.6v6.61c0,2.13.25,3.68,2.9,3.68a4.39,4.39,0,0,0,2.49-.57V31a12.61,12.61,0,0,1-4.28.61c-4.09,0-7.23-1.67-7.23-6V16.16h-3.92v-4.9h3.92V5.38h6.12v5.88H216Z"/></g></g></svg>