<svg xmlns="http://www.w3.org/2000/svg" viewBox="0 0 216 40.65"><defs><style>.cls-1{fill:#f26722;}.cls-2{fill:#051f3b;}</style></defs><g id="Layer_2" data-name="Layer 2"><g id="Layer_1-2" data-name="Layer 1"><rect class="cls-1" x="10.33" y="10.33" width="19.98" height="19.98" rx="6.22" transform="translate(49.06 20.32) rotate(135)"/><rect class="cls-1" x="1.09" y="28.44" width="11.12" height="11.12" rx="2.94" transform="translate(35.39 53.34) rotate(135)"/><rect class="cls-1" x="1.09" y="1.09" width="11.12" height="11.12" rx="2.94" transform="translate(6.65 16.04) rotate(-135)"/><path class="cls-2" d="M38.56,11.26h5.63v2.61h.08a7.7,7.7,0,0,1,6.09-3.1c5.88,0,9.76,4.24,9.76,10.25,0,5.51-3.43,10.57-9.07,10.57-2.53,0-4.9-.69-6.29-2.61h-.08V40.41H38.56ZM49.09,26.2c3.06,0,4.9-2,4.9-5s-1.84-5-4.9-5-4.9,2-4.9,5S46,26.2,49.09,26.2Z"/><path class="cls-2" d="M64.35,1.46A3.55,3.55,0,1,1,60.8,5,3.56,3.56,0,0,1,64.35,1.46Zm-3.06,9.8h6.13V31.1H61.29Z"/><path class="cls-2" d="M75.67,20.49l-6.62-9.23h7.23l3.51,5.39,3.39-5.39H90l-6.45,9.23L91.18,31.1H84l-4.33-6.61L75,31.1H67.83Z"/><path class="cls-2" d="M107.35,27.67A10.78,10.78,0,0,1,99,31.59c-6.12,0-11-4.08-11-10.41s4.9-10.41,11-10.41c5.72,0,9.31,4.08,9.31,10.41V23.1H94.08a4.58,4.58,0,0,0,4.62,3.84,5.22,5.22,0,0,0,4.37-2.41Zm-5.18-8.74a3.67,3.67,0,0,0-3.76-3.75,4.09,4.09,0,0,0-4.33,3.75Z"/><path class="cls-2" d="M109.67.23h6.12V31.1h-6.12Z"/><path class="cls-2" d="M118.11.23h6.13V13.38h.08c1.39-1.92,3.76-2.61,6.29-2.61,5.64,0,9.07,5.06,9.07,10.57,0,6-3.88,10.25-9.76,10.25a7.7,7.7,0,0,1-6.09-3.1h-.08V31.1h-5.64Zm10.54,26c3.06,0,4.9-2,4.9-5s-1.84-5-4.9-5-4.9,2-4.9,5S125.59,26.2,128.65,26.2Z"/><path class="cls-2" d="M151,10.77c6.13,0,11,4.08,11,10.41s-4.9,10.41-11,10.41-11-4.08-11-10.41S144.82,10.77,151,10.77Zm0,15.43c3.06,0,4.9-2,4.9-5s-1.84-5-4.9-5-4.9,2-4.9,5S147.89,26.2,151,26.2Z"/><path class="cls-2" d="M173.29,10.77c6.12,0,11,4.08,11,10.41s-4.9,10.41-11,10.41-11-4.08-11-10.41S167.16,10.77,173.29,10.77Zm0,15.43c3.06,0,4.9-2,4.9-5s-1.84-5-4.9-5-4.9,2-4.9,5S170.22,26.2,173.29,26.2Z"/><path class="cls-2" d="M196.32,17.1a4.38,4.38,0,0,0-3.56-1.68c-1,0-2.24.45-2.24,1.64,0,2.94,10.33.44,10.33,8,0,5.06-4.9,6.53-9.15,6.53-2.77,0-5.84-.69-7.8-2.69l3.72-4.13A5.32,5.32,0,0,0,192,26.94c1.39,0,2.77-.37,2.77-1.43,0-3.19-10.33-.49-10.33-8,0-4.65,4.17-6.69,8.33-6.69,2.62,0,5.52.65,7.35,2.61Z"/><path class="cls-2" d="M216,16.16h-5.39v6.61c0,2.13.24,3.68,2.9,3.68a4.41,4.41,0,0,0,2.49-.57V31a12.7,12.7,0,0,1-4.29.61c-4.08,0-7.23-1.67-7.23-6V16.16h-3.92v-4.9h3.92V5.38h6.13v5.88H216Z"/></g></g></svg>